<svg id="Capa_1" enable-background="new 0 0 512.005 512.005" height="512" viewBox="0 0 512.005 512.005" width="512" xmlns="http://www.w3.org/2000/svg"><g><path d="m256.002.002c-68.433 0-132.735 26.614-181.061 74.94-16.045 16.045-29.681 33.859-40.76 52.993l27.918 26.118 193.903 101.949 10-228.496z" fill="#66c0ee"/><path d="m477.824 127.935c-11.079-19.134-24.715-36.948-40.76-52.993-48.326-48.326-112.628-74.94-181.062-74.94v256l196.719-103.575z" fill="#e62e6b"/><path d="m477.824 127.935-221.822 128.067 198.95 124.863 22.871 3.204c22.29-38.495 34.181-82.355 34.181-128.067s-11.891-89.572-34.18-128.067z" fill="#fabe2c"/><path d="m256.002 512.002c68.433 0 132.735-26.614 181.062-74.94 16.045-16.045 29.681-33.859 40.76-52.993l-221.822-128.067-10 233.622z" fill="#00cc76"/><path d="m34.181 384.07c11.079 19.134 24.715 36.948 40.76 52.993 48.326 48.326 112.628 74.94 181.061 74.94v-256l-202.177 106.725z" fill="#f69"/><path d="m256.002 80.336c-46.958 0-91.081 18.263-124.244 51.424-11.01 11.01-20.367 23.234-27.969 36.363l18.035 20.412 134.178 67.467 10-156.037z" fill="#7ed8f6"/><path d="m408.215 168.124c-7.602-13.129-16.959-25.353-27.969-36.363-33.162-33.162-77.286-51.424-124.243-51.424v80.334l10 95.333 55.688-32.793 62.314-31.109z" fill="#f69"/><path d="m34.181 127.935c-22.29 38.495-34.181 82.356-34.181 128.067s11.891 89.572 34.181 128.067l221.821-128.067z" fill="#704c55"/><path d="m408.215 168.124-152.212 87.879 133.233 86.921 18.98.958c15.295-26.415 23.456-56.512 23.456-87.879s-8.162-61.464-23.457-87.879z" fill="#fed843"/><path d="m256.002 431.669c46.958 0 91.081-18.263 124.243-51.424 11.01-11.01 20.367-23.234 27.969-36.363l-152.212-87.879-10 154.97z" fill="#a5e887"/><path d="m103.79 343.882c7.602 13.129 16.959 25.353 27.969 36.363 33.162 33.162 77.286 51.424 124.244 51.424v-175.667l-135.549 68.259z" fill="#f9b"/><path d="m103.79 168.123c-15.296 26.415-23.456 56.512-23.456 87.879s8.16 61.464 23.456 87.879l152.213-87.879z" fill="#9b786f"/><circle cx="256.002" cy="256.002" fill="#d9f2ff" r="95.334"/><path d="m256.002 160.669v190.667c52.567 0 95.334-42.767 95.334-95.333s-42.766-95.334-95.334-95.334z" fill="#c4e1ff"/></g></svg>